# xmcd CD database file
#
# Track frame offsets:
#	150
#	10340
#	23692
#	36487
#	44522
#	52717
#	62680
#	69130
#	76380
#	86980
#	100967
#	109285
#	116017
#	124700
#	130417
#	138212
#	148115
#	158267
#	169715
#	180987
#	205817
#
# Disc length: 4440 seconds
#
# Revision: 0
# Processed by: cddbd v1.5.1PL0 Copyright (c) Steve Scherf et al.
# Submitted via: CDex 1.51
#
DISCID=19115615
DTITLE=MEGAMIX - classical SPEED 2
DYEAR=2004
DGENRE=Eurodance
TTITLE0="THE PLANETS", Op.32 Jupiter, the Bringer of Jolity
TTITLE1=Con Te Partiro (Time To Say Goodbye)
TTITLE2=Amazing Grace
TTITLE3=Serenade No. 13 in G major, K. 525, " EINE KLEINE NACHATMUSIK" - 1st Movement
TTITLE4="The Four Seasons"-"Spring", 1st Movement
TTITLE5=Symphony No.40 in G minor, K.550 -1st Movent:Molto allegro
TTITLE6="Judas Maccabaeus"−See,the conquering hero
TTITLE7=Zigeunerweisen, Op.20
TTITLE8=Piano Sonata No.8 - 2nd movement
TTITLE9=Chanson de l'adieu-Etude No.3 in E major, Op.10-3
TTITLE10=THE STARS AND STRIPES FOREVER
TTITLE11=Piano Sonata No.14 in C sharp minor, Op.27-2 "MONDSCHEIN"- 1st. movement
TTITLE12="Carmina Burana"-O Fortuna
TTITLE13=Jazz Suite No.2 - No.4 Waltz
TTITLE14=Gymnopedie No.1
TTITLE15=Prince Igor - Polovetsian Dance
TTITLE16=DIE WALKURE - The Ride of the Valkyries
TTITLE17=Bolero
TTITLE18=Piano Concerto No.1 in B flat minor, Op.23 - 1st movement (Opening)
TTITLE19=March "Pomp and Circumstance" No.1 in D major, Op.39-1
TTITLE20=CCCD data
EXTD=YEAR: 2004
EXTT0=
EXTT1=
EXTT2=
EXTT3=
EXTT4=
EXTT5=
EXTT6=
EXTT7=
EXTT8=
EXTT9=
EXTT10=
EXTT11=
EXTT12=
EXTT13=
EXTT14=
EXTT15=
EXTT16=
EXTT17=
EXTT18=
EXTT19=
EXTT20=
PLAYORDER=
